<mxfile host="65bd71144e">
    <diagram id="Vfg_s8rGCRNalU27XtB3" name="Page-1">
        <mxGraphModel dx="1105" dy="609" grid="1" gridSize="10" guides="1" tooltips="1" connect="1" arrows="1" fold="1" page="1" pageScale="1" pageWidth="1200" pageHeight="1000" math="0" shadow="0">
            <root>
                <mxCell id="0"/>
                <mxCell id="1" parent="0"/>
                <mxCell id="150" style="edgeStyle=none;html=1;exitX=0;exitY=0;exitDx=220;exitDy=0;exitPerimeter=0;endArrow=none;endFill=0;" edge="1" parent="1" source="115" target="148">
                    <mxGeometry relative="1" as="geometry"/>
                </mxCell>
                <mxCell id="115" value="" style="html=1;dashed=0;whitespace=wrap;shape=mxgraph.dfd.externalEntity;flipH=1;" parent="1" vertex="1">
                    <mxGeometry x="80" y="440" width="450" height="450" as="geometry"/>
                </mxCell>
                <mxCell id="117" value="&lt;font style=&quot;font-size: 14px;&quot;&gt;Laptop / Desktop Device&lt;/font&gt;" style="text;html=1;strokeColor=none;fillColor=none;align=center;verticalAlign=middle;whiteSpace=wrap;rounded=0;" parent="1" vertex="1">
                    <mxGeometry x="120" y="450" width="350" height="30" as="geometry"/>
                </mxCell>
                <mxCell id="118" value="" style="html=1;dashed=0;whitespace=wrap;shape=mxgraph.dfd.externalEntity;fontSize=14;flipH=1;" parent="1" vertex="1">
                    <mxGeometry x="110" y="480" width="370" height="350" as="geometry"/>
                </mxCell>
                <mxCell id="120" value="&lt;div style=&quot;text-align: left;&quot;&gt;&lt;span style=&quot;background-color: initial;&quot;&gt;RAM :8GB&lt;/span&gt;&lt;/div&gt;&lt;div style=&quot;text-align: left;&quot;&gt;&lt;span style=&quot;background-color: initial;&quot;&gt;ROM: 256GB&lt;/span&gt;&lt;/div&gt;" style="text;html=1;strokeColor=none;fillColor=none;align=center;verticalAlign=middle;whiteSpace=wrap;rounded=0;fontSize=14;" parent="1" vertex="1">
                    <mxGeometry x="110" y="830" width="130" height="60" as="geometry"/>
                </mxCell>
                <mxCell id="152" style="edgeStyle=none;html=1;exitX=0;exitY=0;exitDx=120;exitDy=0;exitPerimeter=0;endArrow=none;endFill=0;" edge="1" parent="1" source="128" target="148">
                    <mxGeometry relative="1" as="geometry"/>
                </mxCell>
                <mxCell id="128" value="" style="html=1;dashed=0;whitespace=wrap;shape=mxgraph.dfd.externalEntity;fontSize=14;flipH=1;" parent="1" vertex="1">
                    <mxGeometry x="730" y="460" width="250" height="380" as="geometry"/>
                </mxCell>
                <mxCell id="131" value="&lt;font style=&quot;font-size: 14px;&quot;&gt;Mobile Phone/Tablet Device&lt;/font&gt;" style="text;html=1;strokeColor=none;fillColor=none;align=center;verticalAlign=middle;whiteSpace=wrap;rounded=0;" parent="1" vertex="1">
                    <mxGeometry x="700" y="470" width="310" height="30" as="geometry"/>
                </mxCell>
                <mxCell id="132" value="" style="html=1;dashed=0;whitespace=wrap;shape=mxgraph.dfd.externalEntity;fontSize=14;flipH=1;" parent="1" vertex="1">
                    <mxGeometry x="740" y="500" width="220" height="280" as="geometry"/>
                </mxCell>
                <mxCell id="134" value="&lt;br&gt;MenuMaApp Order" style="html=1;dashed=0;whitespace=wrap;shape=mxgraph.dfd.externalEntity;fontSize=14;flipH=1;verticalAlign=top;" parent="1" vertex="1">
                    <mxGeometry x="750" y="540" width="190" height="230" as="geometry"/>
                </mxCell>
                <mxCell id="135" value="&lt;div style=&quot;text-align: left;&quot;&gt;&lt;span style=&quot;background-color: initial;&quot;&gt;RAM :2GB&lt;/span&gt;&lt;/div&gt;&lt;div style=&quot;text-align: left;&quot;&gt;&lt;span style=&quot;background-color: initial;&quot;&gt;ROM: 16GB&lt;/span&gt;&lt;/div&gt;" style="text;html=1;strokeColor=none;fillColor=none;align=center;verticalAlign=middle;whiteSpace=wrap;rounded=0;fontSize=14;" parent="1" vertex="1">
                    <mxGeometry x="730" y="780" width="130" height="60" as="geometry"/>
                </mxCell>
                <mxCell id="138" value="&lt;span style=&quot;font-size: 14px;&quot;&gt;Windows 10/Linux&lt;/span&gt;" style="text;html=1;strokeColor=none;fillColor=none;align=center;verticalAlign=middle;whiteSpace=wrap;rounded=0;" parent="1" vertex="1">
                    <mxGeometry x="160" y="490" width="260" height="30" as="geometry"/>
                </mxCell>
                <mxCell id="140" value="&lt;br&gt;MenuMaApp Manage" style="html=1;dashed=0;whitespace=wrap;shape=mxgraph.dfd.externalEntity;fontSize=14;flipH=1;align=center;verticalAlign=top;" parent="1" vertex="1">
                    <mxGeometry x="140" y="520" width="300" height="290" as="geometry"/>
                </mxCell>
                <mxCell id="124" value="Design" style="html=1;dashed=0;whitespace=wrap;shape=mxgraph.dfd.externalEntity;fontSize=14;flipH=1;align=center;" parent="1" vertex="1">
                    <mxGeometry x="150" y="646.5500000000001" width="270" height="66.9" as="geometry"/>
                </mxCell>
                <mxCell id="126" value="Manage Menu&lt;br&gt;Items" style="html=1;dashed=0;whitespace=wrap;shape=mxgraph.dfd.externalEntity;fontSize=14;flipH=1;align=center;" parent="1" vertex="1">
                    <mxGeometry x="150" y="570" width="270" height="66.9" as="geometry"/>
                </mxCell>
                <mxCell id="141" value="Order Queue" style="html=1;dashed=0;whitespace=wrap;shape=mxgraph.dfd.externalEntity;fontSize=14;flipH=1;align=center;" parent="1" vertex="1">
                    <mxGeometry x="150" y="720" width="270" height="70" as="geometry"/>
                </mxCell>
                <mxCell id="143" value="&lt;font style=&quot;font-size: 14px;&quot;&gt;Android 4.2.2 above&lt;/font&gt;" style="text;html=1;strokeColor=none;fillColor=none;align=center;verticalAlign=middle;whiteSpace=wrap;rounded=0;" parent="1" vertex="1">
                    <mxGeometry x="735" y="510" width="230" height="30" as="geometry"/>
                </mxCell>
                <mxCell id="144" value="Browse Menu&lt;br&gt;Items" style="html=1;dashed=0;whitespace=wrap;shape=mxgraph.dfd.externalEntity;fontSize=14;flipH=1;align=center;" parent="1" vertex="1">
                    <mxGeometry x="760" y="593.1" width="160" height="76.9" as="geometry"/>
                </mxCell>
                <mxCell id="145" value="Input Order/s" style="html=1;dashed=0;whitespace=wrap;shape=mxgraph.dfd.externalEntity;fontSize=14;flipH=1;align=center;" parent="1" vertex="1">
                    <mxGeometry x="760" y="680" width="160" height="80" as="geometry"/>
                </mxCell>
                <mxCell id="148" value="" style="fontColor=#0066CC;verticalAlign=top;verticalLabelPosition=bottom;labelPosition=center;align=center;html=1;outlineConnect=0;fillColor=default;strokeColor=default;gradientColor=none;gradientDirection=north;strokeWidth=2;shape=mxgraph.networks.wireless_modem;fillStyle=solid;" vertex="1" parent="1">
                    <mxGeometry x="550" y="110" width="170" height="150" as="geometry"/>
                </mxCell>
            </root>
        </mxGraphModel>
    </diagram>
</mxfile>